<?xml version="1.0" encoding="UTF-8"?>
<svg version="1.1" xmlns="http://www.w3.org/2000/svg" width="16" height="16">
<path d="M0 0 C5.28 0 10.56 0 16 0 C16 5.28 16 10.56 16 16 C10.72 16 5.44 16 0 16 C0 10.72 0 5.44 0 0 Z " fill="#BCD8E3" transform="translate(0,0)"/>
<path d="M0 0 C5.28 0 10.56 0 16 0 C16 3.3 16 6.6 16 10 C14.68 9.34 13.36 8.68 12 8 C12 6.35 12 4.7 12 3 C11.195625 3.165 10.39125 3.33 9.5625 3.5 C7 4 7 4 6 4 C5.67 4.99 5.34 5.98 5 7 C6.32 6.67 7.64 6.34 9 6 C9 6.66 9 7.32 9 8 C4.545 8.495 4.545 8.495 0 9 C0 6.03 0 3.06 0 0 Z " fill="#CDE7EE" transform="translate(0,0)"/>
<path d="M0 0 C2.33944736 0.28730055 4.6739143 0.61936779 7 1 C7.66 3.64 8.32 6.28 9 9 C5.04 9 1.08 9 -3 9 C-2.67 8.01 -2.34 7.02 -2 6 C-0.02 6 1.96 6 4 6 C4 5.34 4 4.68 4 4 C2.68 4.33 1.36 4.66 0 5 C-0.5625 3.0625 -0.5625 3.0625 -1 1 C-0.67 0.67 -0.34 0.34 0 0 Z " fill="#7390A9" transform="translate(5,2)"/>
<path d="M0 0 C2.64 0 5.28 0 8 0 C8 3.3 8 6.6 8 10 C6.68 9.34 5.36 8.68 4 8 C4 6.35 4 4.7 4 3 C2.35 3.33 0.7 3.66 -1 4 C-0.67 2.68 -0.34 1.36 0 0 Z " fill="#DFF1F6" transform="translate(8,0)"/>
<path d="M0 0 C2.475 0.495 2.475 0.495 5 1 C4.67 2.32 4.34 3.64 4 5 C4.66 5 5.32 5 6 5 C6.33 4.34 6.66 3.68 7 3 C7.33 4.32 7.66 5.64 8 7 C5.36 7 2.72 7 0 7 C0 4.69 0 2.38 0 0 Z " fill="#76B9D7" transform="translate(0,9)"/>
<path d="M0 0 C0 1.65 0 3.3 0 5 C-2.31 5 -4.62 5 -7 5 C-6.34 4.67 -5.68 4.34 -5 4 C-5 3.01 -5 2.02 -5 1 C-1.125 0 -1.125 0 0 0 Z " fill="#5A9BC1" transform="translate(16,11)"/>
</svg>
